# xmcd
#
# Track frame offsets: 
#        150
#        22825
#        39736
#        57394
#        69193
#        85797
#        94474
#        106481
#        118592
#        131349
#        161960
#        177405
#        199423
#        211188
#        228163
#        255373
#        266136
#        276759
#
# Disc length: 3812 seconds
#
# Revision: 0
# Processed by: cddbd v1.5.2PL0 Copyright (c) Steve Scherf et al.
# Submitted via: ExactAudioCopy v0.99pb5
#
DISCID=fe0ee212
DTITLE=Various Artist - Rhythm 'N' Blues CD 2
DYEAR=2005
DGENRE=Blues
TTITLE0=Kc and The Sunshine Band - That's The Way I Like It
TTITLE1=Dionne Warwick - Walk On By
TTITLE2=Percy Sledge - When A Man Loves A Woman
TTITLE3=Sam and Dave - Soul Man
TTITLE4=Billy Preston - I'll Drown In My Own Tears
TTITLE5=Gladys Knight and The Pips - Every Beat Of My Heart
TTITLE6=The Platters - Smoke Gets In Your Eyes
TTITLE7=Martha Reeves - Dancing In The Street
TTITLE8=Tavares - More Than A Woman
TTITLE9=Evelyn Thomas - High Energy
TTITLE10=Rufus Thomas - Do The Funky Chicken
TTITLE11=Al Wilson - Show And Tell
TTITLE12=The Platters - Only You
TTITLE13=Kool and The Gang - Ladies Night
TTITLE14=Harold Melvin - Me And Mrs Jones
TTITLE15=Aretha Franklin - Respect
TTITLE16=Fats Domino - Blueberry Hill
TTITLE17=Brook Benton - Shadrack
EXTD=
EXTT0=
EXTT1=
EXTT2=
EXTT3=
EXTT4=
EXTT5=
EXTT6=
EXTT7=
EXTT8=
EXTT9=
EXTT10=
EXTT11=
EXTT12=
EXTT13=
EXTT14=
EXTT15=
EXTT16=
EXTT17=
PLAYORDER=
